<svg width="265" height="98" viewBox="0 0 265 98" fill="none" xmlns="http://www.w3.org/2000/svg">
    <clipPath id="clip0_1_1">
        <rect width="265" height="98" fill="white"/>
    </clipPath>
    <g clip-path="url(#clip0_1_1)">
        <path d="M211.04,39.6 L226.88,39.6 226.88,49.53 244.59,39.6 252.01,52.99 226.88,67.03 226.88,76.53 211.04,76.53ZM187.04,39.6 L202.88,39.6 202.88,76.53 187.04,76.53ZM85.05,39.6 L115.22,39.6 115.22,76.53 99.38,76.53 99.38,51.55 90.38,51.55 90.38,76.53 74.54,76.53 74.54,50.18ZM151.2,32.61 L144.5,51.55 157.82,51.55ZM30.52,25.84 L30.52,64.58 51.47,64.58 51.47,25.84ZM187.04,13.89 L202.88,13.89 202.88,29.8 187.04,29.8ZM25.2,13.89 L67.39,13.89 67.39,66.02 56.8,76.53 14.68,76.53 14.68,24.48ZM141.4,13.82 L160.91,13.82 181.58,71.27 166.6,76.53 161.99,63.5 140.32,63.5 135.72,76.53 120.74,71.27Z" fill="url(#paint0_linear_1_1)"/>
    </g>
    <defs>
        <linearGradient id="paint0_linear_1_1" x1="132" y1="5.33" x2="132" y2="91.73" gradientUnits="userSpaceOnUse">
            <stop stop-color="#F48FB1" offset="0"/>
            <stop stop-color="#90CAF9" offset="0.88"/>
            <stop stop-color="#90CAF9" offset="1"/>
        </linearGradient>
    </defs>
</svg>
